<?xml version="1.0" encoding="utf-8" ?><svg xmlns="http://www.w3.org/2000/svg" xmlns:xlink="http://www.w3.org/1999/xlink" width="1072" height="264" viewBox="0 0 1072 264"><clipPath id="cl_5"><rect y="0.00024414062" width="1072" height="264"/></clipPath><g clip-path="url(#cl_5)"><path fill="#FED642" transform="matrix(1.04688 0 0 1.04762 0 -808.762)" d="M286.109 822.556C310.246 821.384 322.815 837.769 324.187 860.351C315.538 860.621 305.494 860.223 296.842 859.896C292.874 847.48 289.11 837.313 284.37 825.209C281.966 831.478 279.425 840.146 281.393 846.807C285.154 858.727 300.195 861.232 310.189 866.619C331.142 877.913 327.335 905.093 308.566 916.017C302.707 919.427 299.919 919.893 293.119 921.392C284.376 922.533 272.209 918.544 265.816 912.397C257.436 904.338 255.722 893.501 255.397 882.433C263.715 882.421 274.344 882.067 282.396 882.768C284.732 896.466 288.421 906.149 293.584 918.871C308.356 889.218 289.621 884.989 267.752 875.039C262.655 872.72 257.273 866.376 256.187 860.656C252.021 838.715 267.104 827.24 286.109 822.556Z"/><path fill="#FED642" transform="matrix(1.04688 0 0 1.04762 0 -808.762)" d="M327.505 886.358C334.213 887.431 342.887 887.935 349.806 888.482C350.881 889.725 351.997 890.932 353.151 892.103C361.695 900.686 367.595 895.176 374.265 888.393C380.768 887.379 387.308 887.467 393.867 887.477C393.297 894.032 391.369 900.396 388.206 906.165C380.871 919.588 370.179 923.935 356.421 916.417C351.366 912.161 348.62 908.521 344.404 903.39C348.36 911.566 353.615 918.915 357.406 927.013C359.16 930.76 358.657 938.604 358.575 942.99C348.196 942.97 337.817 943.003 327.438 943.09C327.365 924.179 327.387 905.269 327.505 886.358Z"/><path fill="#FED642" transform="matrix(1.04688 0 0 1.04762 0 -808.762)" d="M631.773 877.722C633.215 877.51 632.756 877.545 634.23 877.745C635.763 880.521 635.086 914.757 635.053 919.935C627.357 919.755 619.657 919.765 611.96 919.964L612.005 912.184C603.624 921.167 598.321 922.288 586.563 919.288C574.489 914.14 571.457 903.345 573.902 891.292C586.167 881.002 615.882 879.181 631.773 877.722ZM606.268 895.276C608.449 894.632 610.114 892.863 610.625 890.648C611.136 888.432 610.414 886.113 608.736 884.579C607.057 883.045 604.683 882.534 602.522 883.241C599.248 884.313 597.442 887.815 598.466 891.105C599.49 894.394 602.965 896.251 606.268 895.276Z"/><path fill="#FED642" transform="matrix(1.04688 0 0 1.04762 0 -808.762)" d="M766.178 877.176C767.329 876.932 767.253 876.956 768.411 877.213C769.88 880.25 769.167 913.87 769.102 919.586C761.328 919.524 753.553 919.537 745.779 919.625C745.717 916.912 745.842 914.36 745.951 911.655C738.145 920.726 732.085 922.675 720.593 919.233C713.862 916.389 711.759 913.002 708.725 906.767C697.581 883.863 731.923 881.875 746.248 879.943L766.178 877.176ZM739.758 895.536C743.017 894.749 745.029 891.478 744.261 888.214C743.493 884.95 740.233 882.92 736.965 883.669C733.671 884.425 731.62 887.717 732.394 891.007C733.169 894.297 736.472 896.329 739.758 895.536Z"/><path fill="#FED642" transform="matrix(1.04688 0 0 1.04762 0 -808.762)" d="M504.418 849.583C526.269 848.002 529.432 861.32 532.143 878.927C524.642 880.451 513.803 880.635 506.034 880.72C505.368 879.361 504.62 878.044 503.794 876.776C502.69 875.081 502.041 874.454 500.049 874.007C496.109 874.737 494.761 877.78 491.869 880.92C487.665 881.789 473.095 881.835 466.485 882.715L466.456 850.891C474.608 850.944 482.76 850.903 490.911 850.769C490.757 853.622 490.75 856.814 490.681 859.699C495.355 853.133 496.984 851.917 504.418 849.583Z"/><path fill="#FED642" transform="matrix(1.04688 0 0 1.04762 0 -808.762)" d="M365.263 850.193C386.211 849.995 390.133 866.991 394.006 883.535C388.041 883.437 380.896 882.93 374.971 882.427C369.08 872.106 363.149 868.419 352.816 876.768C351.272 878.948 350.842 880.229 349.814 882.662C342.579 883.028 334.637 883.282 327.48 883.95C327.367 873.011 327.342 862.071 327.404 851.132C334.702 850.844 342.231 851.045 349.553 851.144L349.48 859.026C355.044 852.541 356.745 850.921 365.263 850.193Z"/><path fill="#FED642" transform="matrix(1.04688 0 0 1.04762 0 -808.762)" d="M677.242 849.626C696.093 848.344 699.965 855.713 703.979 872.729C694.413 875.28 688.681 878.045 678.331 879.604C669.24 866.402 670.361 878.955 663.625 880.989C656.596 881.055 644.931 880.27 638.487 880.949L638.483 850.739C645.827 850.453 656.128 850.886 663.69 850.923L663.524 859.442C668.609 853.307 669.647 852.098 677.242 849.626Z"/><path fill="#FED642" transform="matrix(1.04688 0 0 1.04762 0 -808.762)" d="M454.952 887.283C457.758 887.003 461.249 886.994 464.129 886.913C460.667 905.742 450.499 919.72 429.743 920.796C419.577 921.323 411.545 917.014 404.294 910.12C397.263 902.446 396.577 897.326 394.634 887.443C402.742 887.443 409.005 887.427 417.098 888.557C426.41 899.425 432.494 899.964 441.104 888.201C445.716 887.833 450.332 887.527 454.952 887.283Z"/><path fill="#FED642" transform="matrix(1.04688 0 0 1.04762 0 -808.762)" d="M424.626 849.6C448.584 847.412 458.952 861.972 464.102 883.062C456.865 882.997 449.127 882.588 441.857 882.328C439.729 877.398 438.642 875.634 434.135 872.795C423.869 870.744 420.767 872.925 417.141 882.729C409.687 882.865 402.236 883.139 394.793 883.55C398.406 863.387 403.055 853.939 424.626 849.6Z"/><path fill="#FED642" transform="matrix(1.04688 0 0 1.04762 0 -808.762)" d="M599.8 849.648C618.002 847.367 631.425 857.489 634.988 875.275C626.991 874.69 618.983 874.278 610.968 874.041C597.893 873.882 586.14 873.741 573.041 874.116C572.806 870.37 572.648 866.619 572.567 862.866C579.909 853.55 588.745 851.41 599.8 849.648Z"/><path fill="#FED642" transform="matrix(1.04688 0 0 1.04762 0 -808.762)" d="M736.25 849.683C741.102 849.122 749.68 850.985 753.966 853.439C762.83 858.511 766.607 865.383 769.205 874.696C760.18 874.418 751.153 874.202 742.125 874.049C730.779 874.103 718.58 873.552 707.001 873.482C706.906 869.895 706.867 866.648 706.949 863.064C715.164 853.24 723.925 851.193 736.25 849.683Z"/><path fill="#FED642" transform="matrix(1.04688 0 0 1.04762 0 -808.762)" d="M702.302 876.45C703.359 876.516 702.868 876.322 703.715 877.166C704.824 886.676 704.117 909.268 704.038 919.876C694.541 919.529 684.51 919.674 674.968 919.669L673.681 919.752L673.073 919.163C673.13 915.817 674.201 910.525 674.794 907.03C676.094 899.38 677.244 892.609 677.506 884.796C686.486 882.127 693.586 879.878 702.302 876.45Z"/><path fill="#FED642" transform="matrix(1.04688 0 0 1.04762 0 -808.762)" d="M563.415 831.416C565.724 834.363 564.95 848.252 564.851 852.49L570.639 852.447L570.624 864.486C568.634 864.737 566.541 864.895 564.536 865.08L564.48 876.977C555.861 878.127 547.159 878.839 538.517 880.11C537.626 880.081 537.266 879.984 536.387 879.829C534.486 877.41 535.479 870.095 535.6 866.554L532.098 862.275C531.575 858.828 531.602 856.612 531.581 853.129C549.794 851.63 555.914 848.748 563.415 831.416Z"/><path fill="#FED642" transform="matrix(1.04688 0 0 1.04762 0 -808.762)" d="M529.206 881.997L531.003 881.987C532.293 883.547 531.792 915.238 531.79 919.677C522.56 919.528 513.122 919.615 503.875 919.601C502.541 919.66 502.3 919.63 500.97 919.448C500 917.595 504.381 892.286 505.142 888.123C513.299 886.299 521.208 884.433 529.206 881.997Z"/><path fill="#FED642" transform="matrix(1.04688 0 0 1.04762 0 -808.762)" d="M662.396 888.709C664.074 888.447 664.582 888.232 666.196 888.814C667.092 891.536 667.888 898.592 668.363 901.751C669.245 907.814 670.322 913.847 671.594 919.84C664.766 919.508 656.211 919.704 649.25 919.67C645.712 919.629 642.027 919.743 638.476 919.805L638.584 888.852C648.18 889.463 652.838 889.6 662.396 888.709Z"/><path fill="#FED642" transform="matrix(1.04688 0 0 1.04762 0 -808.762)" d="M466.482 887.305C477.526 888.523 481.894 890.314 494.448 890.499C495.277 900.638 496.574 909.788 499.069 919.672C488.251 919.641 477.229 919.486 466.434 919.891L466.482 887.305Z"/><path fill="#FED642" transform="matrix(1.04688 0 0 1.04762 0 -808.762)" d="M535.506 883.932C548.619 894.708 554.797 894.89 571.127 895.37C571.066 903.389 570.742 908.753 565.98 915.656C559.396 921.629 548.5 922.865 542.034 916.126C534.434 908.205 535.42 894.124 535.506 883.932Z"/></g></svg>